<?xml version="1.0" encoding="utf-8"?>
<!-- Generator: Adobe Illustrator 16.0.0, SVG Export Plug-In . SVG Version: 6.00 Build 0)  -->
<!DOCTYPE svg PUBLIC "-//W3C//DTD SVG 1.1//EN" "http://www.w3.org/Graphics/SVG/1.1/DTD/svg11.dtd">
<svg version="1.1" id="Layer_1" xmlns="http://www.w3.org/2000/svg" xmlns:xlink="http://www.w3.org/1999/xlink" x="0px" y="0px"
	 width="1178px" height="206.68px" viewBox="0 0 1178 206.68" enable-background="new 0 0 1178 206.68" xml:space="preserve">
<g>
	<path fill-rule="evenodd" clip-rule="evenodd" d="M12.44,196.241c0.432-0.933,0.963-1.833,1.282-2.804
		c2.868-8.729,5.697-17.473,8.543-26.21c0.215-0.661,0.482-1.307,0.899-2.429c0.754,0.87,1.279,1.396,1.714,1.988
		c4.695,6.377,10.631,11.057,18.386,13.053c1.953,0.503,4.085,0.322,6.136,0.416c0.384,0.018,0.792-0.113,1.164-0.246
		c1.914-0.683,3.428-1.888,3.863-3.915c0.429-2.001-0.545-3.747-2.158-4.75c-2.633-1.636-5.431-3.024-8.229-4.373
		c-4.96-2.391-10.143-4.373-14.923-7.074c-6.38-3.606-10.827-9.039-12.137-16.429c-1.606-9.064-0.457-17.695,5.322-25.235
		c3.445-4.496,8.061-7.479,13.277-9.536c5.454-2.151,11.118-3.534,16.977-3.798c6.297-0.284,12.623-0.662,18.906-0.372
		c10.071,0.466,19.959,2.272,29.502,5.668c1.948,0.693,2.072,0.973,1.359,3.02c-3.128,8.98-6.271,17.955-9.424,26.926
		c-0.225,0.639-0.57,1.235-1.024,2.203c-0.836-0.888-1.433-1.487-1.992-2.12c-2.599-2.938-5.271-5.783-8.602-7.944
		c-4.72-3.063-9.842-4.544-15.463-4.026c-1.076,0.1-2.21,0.465-3.146,1.006c-2.548,1.47-2.895,4.695-0.733,6.697
		c0.864,0.801,1.899,1.497,2.976,1.975c5.184,2.3,10.438,4.441,15.607,6.771c3.929,1.771,7.878,3.545,11.625,5.66
		c8.416,4.753,12.19,12.3,12.506,21.778c0.146,4.365-0.442,8.618-1.969,12.708c-2.278,6.104-6.517,10.576-12.046,13.826
		c-5.513,3.241-11.596,4.862-17.866,5.893c-8.254,1.355-16.583,1.257-24.862,0.83c-11.583-0.597-22.997-2.455-33.933-6.575
		c-0.521-0.196-1.024-0.439-1.536-0.661C12.44,197.521,12.44,196.88,12.44,196.241z"/>
	<path fill-rule="evenodd" clip-rule="evenodd" d="M1168.76,203.92c-0.957,0.041-1.914,0.117-2.87,0.117
		c-24.863,0.007-49.727,0.006-74.589,0.005c-3.807,0-3.811-0.005-3.811-3.803c-0.001-30.219-0.002-60.438,0.006-90.657
		c0-1.099,0.094-2.198,0.154-3.52c1.005-0.084,1.852-0.216,2.697-0.216c25.423-0.011,50.846-0.011,76.268-0.002
		c0.715,0,1.43,0.103,2.145,0.157c0,8.32,0,16.641,0,24.96c-1.037,0.041-2.073,0.116-3.11,0.117
		c-9.994,0.009-19.988,0.006-29.982,0.006c-0.56,0-1.119-0.007-1.679,0.002c-2.446,0.038-2.496,0.081-2.514,2.614
		c-0.015,2.158-0.027,4.317,0.006,6.476c0.032,2.028,0.152,2.171,2.217,2.179c6.716,0.025,13.432,0.011,20.147,0.013
		c0.72,0,1.442-0.028,2.158,0.025c1.538,0.116,1.831,0.336,1.84,1.891c0.038,7.115,0.038,14.231,0.001,21.347
		c-0.009,1.582-0.284,1.79-1.816,1.906c-0.716,0.055-1.438,0.026-2.158,0.026c-6.716,0.003-13.432-0.012-20.147,0.013
		c-2.079,0.007-2.213,0.15-2.24,2.151c-0.032,2.479,0.011,4.957-0.006,7.436c-0.007,1.079,0.434,1.655,1.561,1.626
		c0.639-0.017,1.278,0.008,1.918,0.008c10.234,0.001,20.468-0.004,30.702,0.008c1.034,0.001,2.069,0.103,3.104,0.157
		C1168.76,187.281,1168.76,195.6,1168.76,203.92z"/>
	<path fill-rule="evenodd" clip-rule="evenodd" d="M675.8,7.601c3.155,1.728,5.135,4.492,6.696,7.619
		c1.287,2.576,2.523,5.177,3.849,7.733c2.68,5.164,6.844,8.323,12.656,9.19c2.055,0.307,4.144,0.465,6.158,0.938
		c2.399,0.563,4.864,1.118,7.073,2.159c4.906,2.312,6.047,6.37,2.993,10.839c-1.696,2.482-3.932,4.598-5.951,6.855
		c-0.423,0.472-0.953,0.851-1.452,1.251c-5.375,4.314-6.691,10.066-5.861,16.57c0.354,2.774,0.924,5.535,1.064,8.319
		c0.107,2.121-0.044,4.333-0.553,6.389c-0.748,3.024-3.052,4.555-6.173,4.754c-2.71,0.173-5.255-0.396-7.668-1.567
		c-2.086-1.012-4.167-2.045-6.184-3.186c-5.611-3.172-11.145-3.255-16.858-0.13c-3.284,1.796-6.739,3.336-10.248,4.643
		c-1.731,0.645-3.76,0.677-5.65,0.664c-2.2-0.015-3.9-1.263-4.483-3.364c-0.547-1.967-0.926-4.089-0.809-6.109
		c0.208-3.581,0.922-7.128,1.283-10.704c0.232-2.299,0.326-4.625,0.276-6.935c-0.052-2.405-1.012-4.498-2.799-6.171
		c-2.1-1.967-4.267-3.869-6.265-5.935c-2.224-2.3-4.315-4.725-5.254-7.915c-0.981-3.335-0.11-6.109,2.959-7.759
		c1.938-1.043,4.123-1.71,6.27-2.271c4.094-1.07,8.257-1.871,12.356-2.92c3.777-0.967,6.498-3.212,8.062-6.902
		c1.12-2.646,2.565-5.153,3.807-7.751c1.659-3.477,3.947-6.375,7.345-8.303C673.561,7.601,674.68,7.601,675.8,7.601z"/>
	<path fill-rule="evenodd" clip-rule="evenodd" d="M121.865,106.013c14.66,0,29.009,0,43.608,0c0.085,1.116,0.227,2.12,0.228,3.124
		c0.017,9.677,0.01,19.354,0.01,29.029c0,0.936,0,1.871,0,3.012c1.08,0.094,1.849,0.217,2.618,0.219
		c5.278,0.017,10.556,0.017,15.834,0.006c2.823-0.006,2.841-0.02,2.843-2.769c0.008-9.757-0.001-19.513,0.01-29.269
		c0.001-1.021,0.091-2.042,0.137-2.993c1.997-0.667,40.941-0.769,43.638-0.116c0.063,0.771,0.19,1.622,0.19,2.472
		c0.01,30.789,0.009,61.578,0.007,92.367c0,0.479-0.02,0.959-0.032,1.438c-0.025,0.983-0.567,1.441-1.515,1.473
		c-0.559,0.02-1.119,0.036-1.679,0.036c-12.475,0.002-24.951,0.002-37.426,0.001c-0.479,0-0.962,0.018-1.439-0.021
		c-1.556-0.123-1.762-0.323-1.869-1.869c-0.044-0.637-0.019-1.279-0.019-1.919c-0.001-9.756-0.001-19.513-0.001-29.27
		c0-0.947,0-1.894,0-3.01c-0.814-0.135-1.417-0.317-2.019-0.319c-5.678-0.022-11.356-0.03-17.034-0.007
		c-2.129,0.008-2.235,0.126-2.238,2.389c-0.014,10.156-0.005,20.313-0.008,30.469c-0.001,3.55-0.007,3.556-3.579,3.557
		c-12.235,0.003-24.471,0.001-36.707,0.001c-0.16,0-0.32,0-0.48-0.001c-3.197-0.021-3.212-0.021-3.212-3.2
		c-0.004-30.629-0.003-61.258,0.002-91.887C121.735,108.088,121.81,107.22,121.865,106.013z"/>
	<path fill-rule="evenodd" clip-rule="evenodd" d="M391.49,106.067c1.13-0.102,1.83-0.221,2.529-0.221
		c21.755,0.005,43.513-0.137,65.266,0.117c8.57,0.1,16.52,2.713,23.083,8.607c4.88,4.383,7.844,9.791,8.809,16.309
		c0.778,5.256,0.332,10.352-1.677,15.29c-1.638,4.027-4.296,7.268-7.65,9.978c-0.304,0.245-0.593,0.511-0.966,0.834
		c0.167,0.32,0.261,0.622,0.448,0.846c7.738,9.269,12.673,19.927,15.461,31.598c0.963,4.03,1.541,8.155,2.225,12.249
		c0.316,1.891-0.058,2.328-1.965,2.349c-4.318,0.047-8.638,0.021-12.957,0.021c-8.878,0.002-17.757,0.001-26.635,0
		c-0.64,0-1.282,0.023-1.919-0.016c-1.638-0.1-1.899-0.338-2.086-1.996c-0.341-3.015-0.563-6.045-0.997-9.046
		c-0.847-5.867-2.011-11.659-4.749-17.007c-2.045-3.996-5.132-6.69-9.575-7.671c-0.737-0.162-1.517-0.128-2.513-0.203
		c-0.059,1.215-0.143,2.149-0.144,3.084c-0.009,9.678-0.005,19.356-0.006,29.034c0,0.64,0.025,1.282-0.018,1.919
		c-0.105,1.555-0.31,1.758-1.859,1.879c-0.557,0.044-1.119,0.022-1.679,0.022c-12.318,0.001-24.635,0.003-36.953-0.001
		c-3.46-0.001-3.47-0.011-3.47-3.425c-0.003-30.474-0.001-60.948-0.001-91.422C391.49,108.25,391.49,107.304,391.49,106.067z
		 M435.602,144.791c1.727-0.203,3.124-0.309,4.5-0.537c6.343-1.055,8.332-5.694,6.709-11.562c-1.14-4.12-4.071-5.915-8.48-5.927
		c-2.821-0.008-2.849,0.006-2.856,2.729c-0.012,4.143-0.009,8.285,0.001,12.429C435.478,142.705,435.542,143.486,435.602,144.791z"
		/>
	<path fill-rule="evenodd" clip-rule="evenodd" d="M736.284,203.818c-1.045,0.091-1.812,0.215-2.577,0.216
		c-12.879,0.012-25.758,0.014-38.636,0.004c-2.532-0.002-2.629-0.088-3.431-2.426c-1.349-3.932-2.672-7.871-4.027-11.8
		c-0.691-2.007-0.762-2.075-2.914-2.079c-8.879-0.017-17.758-0.017-26.637-0.002c-2.144,0.004-2.158,0.034-2.875,2.102
		c-1.388,4.003-2.747,8.015-4.139,12.016c-0.743,2.138-0.785,2.185-3.084,2.187c-13.118,0.014-26.236,0.01-39.355-0.001
		c-0.619,0-1.238-0.123-2.148-0.22c0.215-0.915,0.324-1.681,0.573-2.396c4.904-14.12,9.833-28.231,14.74-42.351
		c3.438-9.891,6.841-19.793,10.274-29.686c2.489-7.174,4.994-14.342,7.51-21.506c0.704-2.004,0.733-2.03,2.931-2.031
		c19.197-0.01,38.395-0.009,57.593-0.002c2.35,0.001,2.409,0.007,3.235,2.334c2.085,5.876,4.112,11.773,6.159,17.663
		c6.506,18.726,13.011,37.451,19.516,56.178c2.176,6.267,4.359,12.532,6.516,18.806C735.811,201.704,735.98,202.63,736.284,203.818z
		 M671.712,142.585c-1.277,1.403-7.101,18.659-7.194,21.084c3.438,0.57,12.414,0.356,14.066-0.435
		C676.31,156.4,674.025,149.537,671.712,142.585z"/>
	<path fill-rule="evenodd" clip-rule="evenodd" d="M376.045,203.892c-1.152,0.064-1.934,0.145-2.715,0.146
		c-12.719,0.008-25.438,0.009-38.156,0.003c-2.916-0.001-2.943-0.004-3.92-2.772c-1.356-3.843-2.646-7.709-4.003-11.552
		c-0.688-1.95-0.727-1.979-2.718-1.983c-8.959-0.017-17.918-0.018-26.877,0.002c-2.009,0.005-2.103,0.089-2.753,1.968
		c-1.36,3.928-2.684,7.869-4.029,11.802c-0.836,2.444-0.908,2.529-3.354,2.531c-12.958,0.013-25.917,0.009-38.876-0.002
		c-0.702-0.001-1.404-0.114-2.417-0.202c0.158-0.847,0.199-1.534,0.417-2.161c4.693-13.517,9.416-27.023,14.112-40.539
		c3.595-10.345,7.156-20.7,10.742-31.048c2.565-7.401,5.137-14.801,7.725-22.195c0.689-1.969,0.786-2.043,2.955-2.044
		c19.278-0.011,38.556-0.011,57.834,0.001c2.137,0.001,2.228,0.073,2.925,2.076c3.47,9.965,6.912,19.939,10.379,29.906
		c5.543,15.928,11.105,31.851,16.647,47.779c1.865,5.361,3.697,10.733,5.53,16.104C375.692,202.297,375.8,202.914,376.045,203.892z
		 M318.408,163.757c-2.404-7.314-4.734-14.403-7.064-21.492c-2.823,7.1-5.245,14.119-7.451,21.492
		C308.864,163.757,313.437,163.757,318.408,163.757z"/>
	<path fill-rule="evenodd" clip-rule="evenodd" d="M974.209,203.852c-1.075,0.078-1.848,0.183-2.62,0.184
		c-12.879,0.01-25.758,0.012-38.637,0.002c-2.541-0.001-2.547-0.025-3.382-2.456c-1.324-3.856-2.634-7.718-3.964-11.572
		c-0.755-2.188-0.838-2.274-3.028-2.278c-8.88-0.015-17.759,0.019-26.639-0.029c-1.502-0.008-2.337,0.482-2.815,1.953
		c-1.312,4.027-2.741,8.016-4.132,12.016c-0.812,2.333-0.824,2.365-3.202,2.367c-12.959,0.011-25.918,0.008-38.877-0.003
		c-0.776,0-1.553-0.11-2.607-0.19c0.229-0.921,0.343-1.608,0.568-2.257c7.895-22.729,15.802-45.454,23.701-68.182
		c2.887-8.306,5.761-16.615,8.636-24.924c0.909-2.627,0.902-2.643,3.722-2.644c18.878-0.004,37.757-0.004,56.635,0
		c2.801,0,2.812,0.011,3.726,2.645c5.193,14.951,10.374,29.906,15.573,44.855c5.566,16.006,11.15,32.005,16.715,48.011
		C973.832,202.071,973.958,202.836,974.209,203.852z M909.525,142.246c-0.171,0.006-0.342,0.012-0.512,0.017
		c-2.304,7.066-4.607,14.133-6.916,21.217c2.385,0.618,12.373,0.575,14.396-0.058C914.171,156.36,911.848,149.303,909.525,142.246z"
		/>
	<path fill-rule="evenodd" clip-rule="evenodd" d="M755.098,165.154c0.521,0.674,1.051,1.34,1.558,2.023
		c4.155,5.603,9.431,9.729,16.008,12.126c2.657,0.968,5.397,1.374,8.218,0.959c0.625-0.092,1.262-0.25,1.836-0.506
		c3.444-1.532,4.29-4.747,1.853-7.58c-0.906-1.053-2.166-1.929-3.435-2.522c-4.773-2.232-9.681-4.188-14.415-6.498
		c-3.216-1.569-6.478-3.235-9.284-5.417c-7.731-6.009-10.548-14.19-9.433-23.771c0.321-2.759,0.792-5.56,1.662-8.185
		c2.511-7.575,7.865-12.647,14.936-16.025c6.054-2.892,12.496-4.437,19.152-4.833c6.131-0.366,12.296-0.639,18.427-0.416
		c10.328,0.375,20.435,2.281,30.228,5.667c1.979,0.685,2.113,0.945,1.486,2.744c-3.155,9.054-6.326,18.104-9.504,27.149
		c-0.231,0.657-0.561,1.28-1.018,2.31c-0.798-0.858-1.387-1.448-1.928-2.079c-2.928-3.415-6.105-6.526-10.024-8.835
		c-4.423-2.605-9.168-3.638-14.252-3.232c-1.557,0.125-2.969,0.612-4.036,1.835c-1.549,1.773-1.606,4.282,0.194,5.78
		c1.511,1.258,3.26,2.326,5.061,3.122c5.26,2.324,10.62,4.42,15.898,6.703c4.18,1.808,8.31,3.729,12.018,6.438
		c5.025,3.672,7.999,8.624,9.203,14.668c1.248,6.257,0.807,12.406-1.501,18.371c-2.551,6.591-7.332,11.152-13.477,14.365
		c-5.218,2.729-10.843,4.146-16.639,5.081c-8.024,1.296-16.103,1.187-24.146,0.813c-11.347-0.528-22.532-2.299-33.274-6.229
		c-0.87-0.318-1.692-0.77-2.735-1.25c3.578-11.034,7.09-21.864,10.602-32.694C754.59,165.208,754.844,165.18,755.098,165.154z"/>
	<path fill-rule="evenodd" clip-rule="evenodd" d="M515.519,106.011c27.277,0,54.191,0,81.303,0c0.114,0.918,0.289,1.689,0.292,2.46
		c0.022,6.637,0.03,13.274,0.005,19.911c-0.01,2.502-0.218,2.69-2.793,2.694c-10.635,0.014-21.271,0.004-31.906,0.009
		c-3.194,0.001-3.197,0.01-3.208,3.164c-0.006,1.919-0.025,3.839,0.009,5.758c0.038,2.161,0.191,2.339,2.331,2.347
		c6.397,0.025,12.794,0.011,19.192,0.012c0.8,0,1.6-0.016,2.399,0.007c2.196,0.063,2.411,0.269,2.457,2.553
		c0.037,1.839,0.011,3.679,0.011,5.518c0,4.798,0.018,9.596-0.011,14.395c-0.015,2.536-0.201,2.712-2.767,2.719
		c-6.637,0.019-13.275,0.007-19.912,0.008c-0.64,0-1.28,0.027-1.918,0.006c-1.186-0.04-1.786,0.481-1.779,1.699
		c0.016,2.639,0.01,5.277,0.007,7.916c-0.001,1.082,0.505,1.628,1.61,1.602c0.64-0.016,1.28,0.009,1.919,0.009
		c10.236,0.001,20.471,0.001,30.707,0.002c0.64,0,1.28,0.027,1.919,0.013c1.071-0.024,1.649,0.473,1.698,1.551
		c0.024,0.56,0.044,1.119,0.044,1.679c0.003,6.237,0.01,12.475-0.001,18.712c-0.006,3.256-0.044,3.289-3.409,3.29
		c-24.949,0.003-49.899,0.002-74.849,0.001c-0.56,0-1.122,0.021-1.678-0.023c-1.538-0.123-1.737-0.328-1.843-1.895
		c-0.038-0.558-0.017-1.119-0.017-1.679c0-30.388-0.002-60.774,0.007-91.162C515.337,108.269,515.447,107.253,515.519,106.011z"/>
	<path fill-rule="evenodd" clip-rule="evenodd" d="M1033.551,106.261c0,1.169,0,2.27,0,3.371c0,21.987-0.001,43.976,0.001,65.963
		c0.001,3.192,0.007,3.199,3.116,3.2c10.313,0.003,20.628,0,30.942,0.002c0.72,0,1.438,0.025,2.158,0.022
		c0.977-0.004,1.473,0.502,1.541,1.446c0.041,0.558,0.057,1.117,0.057,1.677c0.004,6.316,0.004,12.633,0,18.949
		c0,0.56-0.009,1.12-0.059,1.677c-0.085,0.942-0.617,1.431-1.572,1.443c-0.639,0.009-1.278,0.029-1.918,0.029
		c-24.866,0.002-49.731,0.003-74.599,0.001c-3.644-0.001-3.648-0.008-3.648-3.725c-0.001-30.303-0.001-60.606-0.001-90.909
		c0-1.023,0-2.047,0-2.958C991.57,105.722,1030.273,105.558,1033.551,106.261z"/>
</g>
</svg>
